<svg width="15" height="14" viewBox="0 0 15 14" fill="none" xmlns="http://www.w3.org/2000/svg">
<path d="M14.6484 3.45577L11.2968 0.328135C11.1854 0.224105 11.0531 0.141582 10.9075 0.0852804C10.7619 0.0289785 10.6058 0 10.4482 0C10.2906 0 10.1346 0.0289785 9.98897 0.0852804C9.84336 0.141582 9.71107 0.224105 9.59964 0.328135L0.351743 8.95994C0.239831 9.06356 0.151105 9.18692 0.0907219 9.32284C0.0303385 9.45875 -0.00049756 9.60451 6.07098e-06 9.75165V12.88C6.07098e-06 13.177 0.126429 13.4619 0.351464 13.672C0.576499 13.882 0.881712 14 1.19996 14H13.7995C13.9586 14 14.1112 13.941 14.2237 13.836C14.3362 13.731 14.3995 13.5885 14.3995 13.44C14.3995 13.2915 14.3362 13.149 14.2237 13.044C14.1112 12.939 13.9586 12.88 13.7995 12.88H6.24877L14.6484 5.03989C14.7599 4.93588 14.8483 4.8124 14.9086 4.6765C14.969 4.5406 15 4.39494 15 4.24783C15 4.10073 14.969 3.95506 14.9086 3.81916C14.8483 3.68326 14.7599 3.55978 14.6484 3.45577ZM4.55158 12.88H1.19996V9.75165L7.79971 3.59157L11.1513 6.71991L4.55158 12.88ZM11.9995 5.9282L8.64868 2.79986L10.4486 1.11984L13.7995 4.24818L11.9995 5.9282Z" fill="white"/>
</svg>
