<svg width="116" height="136" viewBox="0 0 116 136" fill="none" xmlns="http://www.w3.org/2000/svg">
<g clip-path="url(#clip0_722_12)">
<mask id="mask0_722_12" style="mask-type:luminance" maskUnits="userSpaceOnUse" x="0" y="0" width="116" height="136">
<path d="M116 0H0V136H116V0Z" fill="white"/>
</mask>
<g mask="url(#mask0_722_12)">
<path d="M77.25 0.416656H38.75V13.25H77.25V0.416656ZM51.5833 83.8333H64.4167V45.3333H51.5833V83.8333ZM103.077 41.3871L112.221 32.2433C109.462 28.9387 106.446 25.9229 103.141 23.1637L93.9975 32.3075C84.1479 24.415 71.6033 19.6667 57.9679 19.6667C26.045 19.6667 0.25 45.5258 0.25 77.4167C0.25 109.307 26.045 135.167 57.9679 135.167C89.8908 135.167 115.75 109.307 115.75 77.4167C115.75 63.7812 111.002 51.2687 103.077 41.3871ZM58 122.333C33.1996 122.333 13.0833 102.217 13.0833 77.4167C13.0833 52.6162 33.1996 32.5 58 32.5C82.8004 32.5 102.917 52.6162 102.917 77.4167C102.917 102.217 82.8004 122.333 58 122.333Z" fill="#A056FF"/>
</g>
</g>
<defs>
<clipPath id="clip0_722_12">
<rect width="116" height="136" fill="white"/>
</clipPath>
</defs>
</svg>
