<svg width="16" height="16" viewBox="0 0 16 16" fill="none" xmlns="http://www.w3.org/2000/svg">
<path d="M15.1336 4.25L11.75 0.866405C11.6343 0.749826 11.4967 0.6574 11.345 0.594498C11.1933 0.531596 11.0306 0.499474 10.8664 0.499999H1.75C1.41848 0.499999 1.10054 0.631695 0.866116 0.866115C0.631696 1.10054 0.5 1.41848 0.5 1.75V14.25C0.5 14.5815 0.631696 14.8995 0.866116 15.1339C1.10054 15.3683 1.41848 15.5 1.75 15.5H14.25C14.5815 15.5 14.8995 15.3683 15.1339 15.1339C15.3683 14.8995 15.5 14.5815 15.5 14.25V5.13359C15.5005 4.96938 15.4684 4.8067 15.4055 4.65501C15.3426 4.50332 15.2502 4.36565 15.1336 4.25ZM11.125 14.25H4.875V9.875H11.125V14.25ZM14.25 14.25H12.375V9.875C12.375 9.54348 12.2433 9.22554 12.0089 8.99112C11.7745 8.75669 11.4565 8.625 11.125 8.625H4.875C4.54348 8.625 4.22554 8.75669 3.99112 8.99112C3.7567 9.22554 3.625 9.54348 3.625 9.875V14.25H1.75V1.75H10.8664L14.25 5.13359V14.25ZM10.5 3.625C10.5 3.79076 10.4342 3.94973 10.3169 4.06694C10.1997 4.18415 10.0408 4.25 9.875 4.25H5.5C5.33424 4.25 5.17527 4.18415 5.05806 4.06694C4.94085 3.94973 4.875 3.79076 4.875 3.625C4.875 3.45924 4.94085 3.30027 5.05806 3.18306C5.17527 3.06585 5.33424 3 5.5 3H9.875C10.0408 3 10.1997 3.06585 10.3169 3.18306C10.4342 3.30027 10.5 3.45924 10.5 3.625Z" fill="white"/>
</svg>
